<?xml version="1.0" encoding="UTF-8" standalone="no"?>
<!-- Created with Inkscape (http://www.inkscape.org/) -->

<svg
   width="48"
   height="48"
   viewBox="0 0 12.7 12.7"
   version="1.1"
   id="svg1"
   inkscape:export-filename="icon.png"
   inkscape:export-xdpi="96"
   inkscape:export-ydpi="96"
   inkscape:version="1.3 (0e150ed6c4, 2023-07-21)"
   sodipodi:docname="logo.svg"
   xmlns:inkscape="http://www.inkscape.org/namespaces/inkscape"
   xmlns:sodipodi="http://sodipodi.sourceforge.net/DTD/sodipodi-0.dtd"
   xmlns="http://www.w3.org/2000/svg"
   xmlns:svg="http://www.w3.org/2000/svg">
  <sodipodi:namedview
     id="namedview1"
     pagecolor="#ffffff"
     bordercolor="#000000"
     borderopacity="0.25"
     inkscape:showpageshadow="2"
     inkscape:pageopacity="0.0"
     inkscape:pagecheckerboard="0"
     inkscape:deskcolor="#d1d1d1"
     inkscape:document-units="mm"
     inkscape:zoom="8.3597643"
     inkscape:cx="43.003605"
     inkscape:cy="37.740298"
     inkscape:window-width="2560"
     inkscape:window-height="1369"
     inkscape:window-x="1072"
     inkscape:window-y="247"
     inkscape:window-maximized="1"
     inkscape:current-layer="layer1" />
  <defs
     id="defs1" />
  <g
     inkscape:label="Layer 1"
     inkscape:groupmode="layer"
     id="layer1">
    <path
       d="M 6.268017,0.04666028 A 0.28006942,0.27981873 0 0 0 6.1244951,0.15829809 L 4.5417577,2.8957631 a 0.27355619,0.27331132 0 0 0 -0.029482,0.1746766 0.27355619,0.27331132 0 0 0 0.083947,0.1560415 0.27355619,0.27331132 0 0 0 0.1620372,0.071864 0.27355619,0.27331132 0 0 0 0.1721248,-0.042514 L 6.0875651,2.4619242 V 8.5354886 A 4.617889,4.6137553 0 0 0 5.6752435,7.8977246 4.617889,4.6137553 0 0 0 5.1637771,7.3361566 4.617889,4.6137553 0 0 0 4.5670433,6.8659678 4.617889,4.6137553 0 0 0 3.9012571,6.499942 4.617889,4.6137553 0 0 0 3.1843572,6.2479887 4.617889,4.6137553 0 0 0 2.4358087,6.1169051 L 3.2456249,4.9390823 A 0.27355619,0.27331132 0 0 0 3.2889491,4.803163 0.27355619,0.27331132 0 0 0 3.257842,4.6639288 0.27355619,0.27331132 0 0 0 3.1607622,4.5593259 0.27355619,0.27331132 0 0 0 3.0241451,4.5178628 0.27355619,0.27331132 0 0 0 2.8852267,4.5508038 L 0.14534524,6.1320955 a 0.26921403,0.26897303 0 0 0 -0.1204029,0.1414323 0.26921403,0.26897303 0 0 0 0,0.1856677 0.26921403,0.26897303 0 0 0 0.1204029,0.1414324 L 2.8852292,8.1819474 a 0.27355619,0.27331132 0 0 0 0.1389183,0.032941 0.27355619,0.27331132 0 0 0 0.1366172,-0.041464 0.27355619,0.27331132 0 0 0 0.09708,-0.1046035 0.27355619,0.27331132 0 0 0 0.031107,-0.1392343 0.27355619,0.27331132 0 0 0 -0.043325,-0.1359189 L 2.4683744,6.6635313 A 4.0772898,4.0736403 0 0 1 3.1943791,6.8133173 4.0772898,4.0736403 0 0 1 3.8812546,7.0919539 4.0772898,4.0736403 0 0 1 4.5062861,7.4902428 4.0772898,4.0736403 0 0 1 5.0487589,7.995029 4.0772898,4.0736403 0 0 1 5.4908337,8.5895711 4.0772898,4.0736403 0 0 1 5.8178206,9.254288 4.0772898,4.0736403 0 0 1 6.0189545,9.9671642 4.0772898,4.0736403 0 0 1 6.0875688,10.70466 v 1.735299 a 0.2713851,0.27114219 0 0 0 0.051853,0.159356 0.2713851,0.27114219 0 0 0 0.1356692,0.09852 0.2713851,0.27114219 0 0 0 0.167725,0 0.2713851,0.27114219 0 0 0 0.1357028,-0.09852 0.2713851,0.27114219 0 0 0 0.051821,-0.159356 V 10.70466 A 4.0772898,4.0736403 0 0 1 6.6989546,9.9671642 4.0772898,4.0736403 0 0 1 6.9000887,9.254288 4.0772898,4.0736403 0 0 1 7.2271092,8.5895711 4.0772898,4.0736403 0 0 1 7.6691504,7.995029 4.0772898,4.0736403 0 0 1 8.2116573,7.4902428 4.0772898,4.0736403 0 0 1 8.8366556,7.0919539 4.0772898,4.0736403 0 0 1 9.5235301,6.8133173 4.0772898,4.0736403 0 0 1 10.249534,6.6635313 l -0.7772522,1.130138 a 0.27355619,0.27331132 0 0 0 -0.042548,0.1719708 0.27355619,0.27331132 0 0 0 0.071927,0.1619258 0.27355619,0.27331132 0 0 0 0.156182,0.083838 0.27355619,0.27331132 0 0 0 0.1748324,-0.029454 L 12.57476,6.6006304 a 0.27355619,0.27331132 0 0 0 0.07068,-0.061047 0.27355619,0.27331132 0 0 0 0.04603,-0.081234 0.27355619,0.27331132 0 0 0 0.01595,-0.091988 0.27355619,0.27331132 0 0 0 -0.01595,-0.091955 0.27355619,0.27331132 0 0 0 -0.04603,-0.081268 0.27355619,0.27331132 0 0 0 -0.07068,-0.061039 L 9.8326756,4.5508112 A 0.26704294,0.26680391 0 0 0 9.6566244,4.5161456 0.26704294,0.26680391 0 0 0 9.4983435,4.6006948 0.2713851,0.27114219 0 0 0 9.4257682,4.7653263 0.2713851,0.27114219 0 0 0 9.472276,4.9390899 l 0.809817,1.1778223 A 4.617889,4.6137553 0 0 0 9.5335445,6.2479958 4.617889,4.6137553 0 0 0 8.8166792,6.4999491 4.617889,4.6137553 0 0 0 8.1508586,6.865975 4.617889,4.6137553 0 0 0 7.5541592,7.3361639 4.617889,4.6137553 0 0 0 7.0426921,7.8977317 4.617889,4.6137553 0 0 0 6.6303368,8.535496 V 2.4619315 L 7.787517,3.255838 A 0.27355619,0.27331132 0 0 0 7.923559,3.299129 0.27355619,0.27331132 0 0 0 8.0629173,3.268047 0.27355619,0.27331132 0 0 0 8.1676142,3.171054 0.27355619,0.27331132 0 0 0 8.2091142,3.0345592 0.27355619,0.27331132 0 0 0 8.1761432,2.8957652 L 6.5934389,0.15830039 a 0.28006942,0.27981873 0 0 0 -0.1435554,-0.11163795 0.28006942,0.27981873 0 0 0 -0.1818738,0 z"
       style="fill:#ffffff;stroke-width:0.0654736"
       id="path1" />
  </g>
</svg>
